<svg width="706" height="492" viewBox="0 0 706 492" fill="none" xmlns="http://www.w3.org/2000/svg">
<g filter="url(#filter0_i)">
<path d="M404.608 261.71C396.775 238.599 409.534 224.438 423.563 217.14L458.757 215.155L458.848 189.135L481.226 228.596L498.785 239.207L520.199 229.048L554.719 196.402L582.041 151.17L588.278 90.2415L569.984 43.9551L553.258 20.897L560.435 19.9024L585.733 50.0463L595.642 71.2222L601.464 89.3095L607.477 89.3726L617.254 75.8111L621.38 59.3097L623.431 44.268L625.951 47.5046L626.333 58.2092L625.446 72.193L618.082 91.2123L607.289 107.397L597.514 144.335L602.256 147.678L618.638 140.441L628.795 114.207L631.101 98.5097L632.39 85.4357L635.121 84.2294L636.964 97.0071L637.029 114.376L633.879 147.844L641.902 152.455L656.105 148.9L668.91 137.263L680.191 129.562L683.473 130.831L671.981 142.975L658.965 159.054L644.805 166.396L630.051 167.477L612.462 171.984L601.391 175.243L587.782 185.06L570.914 207.191L552.077 228.559L527.335 247.643L503.164 259.408L501.133 264.655L506.933 269.16L525.307 276.267L548.908 271.822L562.772 261.349L572.338 252.23L578.624 241.843L581.545 245.989L575.451 261.729L564.466 272.561L551.513 282.633L527.002 287.479L505.39 282.891L483.734 274.515L459.054 269.175L439.728 272.88L426.627 281.386L418.689 287.161L412.348 277.182C412.348 277.182 406.48 267.233 404.608 261.71Z" fill="#D9FD35"/>
</g>
<g filter="url(#filter1_i)">
<path d="M364.179 310.197L395.926 249.045C396.213 254.977 398.269 260.297 399.676 264.516C401.084 268.032 401.343 268.396 402.491 270.845C409.527 284.207 422.758 304.026 422.758 304.026L371.755 337.471C371.755 337.471 365.884 328.444 364.486 324.961C363.088 321.479 361.681 315.853 364.179 310.197Z" fill="#D9FD35"/>
</g>
<g filter="url(#filter2_i)">
<path d="M301.052 262.201C308.89 239.09 296.123 224.93 282.085 217.631L246.867 215.646L246.776 189.626L224.383 229.087L206.812 239.698L185.384 229.539L150.841 196.894L123.501 151.661L117.26 90.7329L135.566 44.4464L152.303 21.3884L145.122 20.3938L119.807 50.5377L109.891 71.7136L104.065 89.8008L98.0485 89.8639L88.2644 76.3024L84.1357 59.8011L82.0832 44.7594L79.5619 47.996L79.1794 58.7005L80.0673 72.6844L87.4361 91.7037L98.2366 107.888L108.018 144.827L103.273 148.169L86.8796 140.932L76.7157 114.699L74.4088 99.001L73.1183 85.927L70.3863 84.7208L68.542 97.4985L68.4763 114.867L71.6282 148.335L63.5999 152.946L49.3876 149.391L36.5743 137.755L25.2855 130.053L22.002 131.322L33.5017 143.466L46.5263 159.546L60.6958 166.888L75.4591 167.968L93.0602 172.476L104.138 175.734L117.757 185.552L134.635 207.682L153.485 229.05L178.244 248.134L202.43 259.899L204.463 265.146L198.659 269.652L180.273 276.758L156.656 272.313L142.783 261.84L133.21 252.722L126.921 242.334L123.997 246.48L130.096 262.22L141.087 273.053L154.049 283.124L178.577 287.97L200.204 283.382L221.873 275.006L246.57 269.666L265.909 273.371L279.019 281.877L286.962 287.652L293.307 277.673C293.307 277.673 299.179 267.724 301.052 262.201Z" fill="#D9FD35"/>
</g>
<g filter="url(#filter3_i)">
<path d="M341.055 310.602L309.287 249.45C309 255.382 306.943 260.702 305.535 264.921C304.126 268.438 303.866 268.801 302.718 271.25C295.677 284.612 282.437 304.431 282.437 304.431L333.475 337.876C333.475 337.876 339.349 328.85 340.748 325.367C342.147 321.884 343.556 316.258 341.055 310.602Z" fill="#D9FD35"/>
</g>
<g filter="url(#filter4_i)">
<path d="M329.303 394.751L300.88 337.989L235.642 334.342L257.789 348.793L242.128 377.182C239.225 395.999 246.253 414.192 272.574 420.508C278.115 421.838 288.707 421.785 288.707 421.785L312.215 383.436L329.303 394.751Z" fill="#D9FD35"/>
</g>
<g filter="url(#filter5_i)">
<path d="M420.965 480.154L453.986 419.623C448.892 422.708 443.313 423.984 439.014 425.181C435.299 425.984 432.17 426.394 432.17 426.394C432.17 426.394 408.144 427.785 392.733 428.276L313.148 428.276C299.673 427.764 278.67 426.394 278.67 426.394C278.67 426.394 273.745 425.957 270.227 425.181C264.687 423.958 260.196 422.28 254.747 419.837L287.817 480.154C290.632 485.239 295.557 489.225 301.186 489.569C305.408 490.161 310.333 490.162 313.148 490.162L313.148 490.162L392.733 490.162C399.345 490.175 404.619 490.333 408.626 489.569C416.58 488.052 417.987 484.536 420.965 480.154Z" fill="#D9FD35"/>
</g>
<g filter="url(#filter6_i)">
<path d="M379.896 395.228L406.976 337.768L472.302 332.477L450.456 347.482L466.875 375.467C470.26 394.205 463.669 412.569 437.433 419.547C431.91 421.016 421.287 421.231 421.287 421.231L396.748 383.487L379.896 395.228Z" fill="#D9FD35"/>
</g>
<defs>
<filter id="filter0_i" x="402.219" y="19.9023" width="281.254" height="269.577" filterUnits="userSpaceOnUse" color-interpolation-filters="sRGB">
<feFlood flood-opacity="0" result="BackgroundImageFix"/>
<feBlend mode="normal" in="SourceGraphic" in2="BackgroundImageFix" result="shape"/>
<feColorMatrix in="SourceAlpha" type="matrix" values="0 0 0 0 0 0 0 0 0 0 0 0 0 0 0 0 0 0 127 0" result="hardAlpha"/>
<feOffset dy="2"/>
<feGaussianBlur stdDeviation="1.5"/>
<feComposite in2="hardAlpha" operator="arithmetic" k2="-1" k3="1"/>
<feColorMatrix type="matrix" values="0 0 0 0 0 0 0 0 0 0 0 0 0 0 0 0 0 0 0.25 0"/>
<feBlend mode="normal" in2="shape" result="effect1_innerShadow"/>
</filter>
<filter id="filter1_i" x="362.805" y="249.045" width="59.953" height="90.4265" filterUnits="userSpaceOnUse" color-interpolation-filters="sRGB">
<feFlood flood-opacity="0" result="BackgroundImageFix"/>
<feBlend mode="normal" in="SourceGraphic" in2="BackgroundImageFix" result="shape"/>
<feColorMatrix in="SourceAlpha" type="matrix" values="0 0 0 0 0 0 0 0 0 0 0 0 0 0 0 0 0 0 127 0" result="hardAlpha"/>
<feOffset dy="2"/>
<feGaussianBlur stdDeviation="1.5"/>
<feComposite in2="hardAlpha" operator="arithmetic" k2="-1" k3="1"/>
<feColorMatrix type="matrix" values="0 0 0 0 0 0 0 0 0 0 0 0 0 0 0 0 0 0 0.25 0"/>
<feBlend mode="normal" in2="shape" result="effect1_innerShadow"/>
</filter>
<filter id="filter2_i" x="22.002" y="20.3938" width="281.441" height="269.577" filterUnits="userSpaceOnUse" color-interpolation-filters="sRGB">
<feFlood flood-opacity="0" result="BackgroundImageFix"/>
<feBlend mode="normal" in="SourceGraphic" in2="BackgroundImageFix" result="shape"/>
<feColorMatrix in="SourceAlpha" type="matrix" values="0 0 0 0 0 0 0 0 0 0 0 0 0 0 0 0 0 0 127 0" result="hardAlpha"/>
<feOffset dy="2"/>
<feGaussianBlur stdDeviation="1.5"/>
<feComposite in2="hardAlpha" operator="arithmetic" k2="-1" k3="1"/>
<feColorMatrix type="matrix" values="0 0 0 0 0 0 0 0 0 0 0 0 0 0 0 0 0 0 0.25 0"/>
<feBlend mode="normal" in2="shape" result="effect1_innerShadow"/>
</filter>
<filter id="filter3_i" x="282.438" y="249.45" width="59.993" height="90.4265" filterUnits="userSpaceOnUse" color-interpolation-filters="sRGB">
<feFlood flood-opacity="0" result="BackgroundImageFix"/>
<feBlend mode="normal" in="SourceGraphic" in2="BackgroundImageFix" result="shape"/>
<feColorMatrix in="SourceAlpha" type="matrix" values="0 0 0 0 0 0 0 0 0 0 0 0 0 0 0 0 0 0 127 0" result="hardAlpha"/>
<feOffset dy="2"/>
<feGaussianBlur stdDeviation="1.5"/>
<feComposite in2="hardAlpha" operator="arithmetic" k2="-1" k3="1"/>
<feColorMatrix type="matrix" values="0 0 0 0 0 0 0 0 0 0 0 0 0 0 0 0 0 0 0.25 0"/>
<feBlend mode="normal" in2="shape" result="effect1_innerShadow"/>
</filter>
<filter id="filter4_i" x="235.642" y="334.342" width="93.6616" height="89.4439" filterUnits="userSpaceOnUse" color-interpolation-filters="sRGB">
<feFlood flood-opacity="0" result="BackgroundImageFix"/>
<feBlend mode="normal" in="SourceGraphic" in2="BackgroundImageFix" result="shape"/>
<feColorMatrix in="SourceAlpha" type="matrix" values="0 0 0 0 0 0 0 0 0 0 0 0 0 0 0 0 0 0 127 0" result="hardAlpha"/>
<feOffset dy="2"/>
<feGaussianBlur stdDeviation="1.5"/>
<feComposite in2="hardAlpha" operator="arithmetic" k2="-1" k3="1"/>
<feColorMatrix type="matrix" values="0 0 0 0 0 0 0 0 0 0 0 0 0 0 0 0 0 0 0.25 0"/>
<feBlend mode="normal" in2="shape" result="effect1_innerShadow"/>
</filter>
<filter id="filter5_i" x="254.747" y="419.623" width="199.239" height="72.5605" filterUnits="userSpaceOnUse" color-interpolation-filters="sRGB">
<feFlood flood-opacity="0" result="BackgroundImageFix"/>
<feBlend mode="normal" in="SourceGraphic" in2="BackgroundImageFix" result="shape"/>
<feColorMatrix in="SourceAlpha" type="matrix" values="0 0 0 0 0 0 0 0 0 0 0 0 0 0 0 0 0 0 127 0" result="hardAlpha"/>
<feOffset dy="2"/>
<feGaussianBlur stdDeviation="1.5"/>
<feComposite in2="hardAlpha" operator="arithmetic" k2="-1" k3="1"/>
<feColorMatrix type="matrix" values="0 0 0 0 0 0 0 0 0 0 0 0 0 0 0 0 0 0 0.25 0"/>
<feBlend mode="normal" in2="shape" result="effect1_innerShadow"/>
</filter>
<filter id="filter6_i" x="379.896" y="332.477" width="92.4056" height="90.7536" filterUnits="userSpaceOnUse" color-interpolation-filters="sRGB">
<feFlood flood-opacity="0" result="BackgroundImageFix"/>
<feBlend mode="normal" in="SourceGraphic" in2="BackgroundImageFix" result="shape"/>
<feColorMatrix in="SourceAlpha" type="matrix" values="0 0 0 0 0 0 0 0 0 0 0 0 0 0 0 0 0 0 127 0" result="hardAlpha"/>
<feOffset dy="2"/>
<feGaussianBlur stdDeviation="1.5"/>
<feComposite in2="hardAlpha" operator="arithmetic" k2="-1" k3="1"/>
<feColorMatrix type="matrix" values="0 0 0 0 0 0 0 0 0 0 0 0 0 0 0 0 0 0 0.25 0"/>
<feBlend mode="normal" in2="shape" result="effect1_innerShadow"/>
</filter>
</defs>
</svg>
