<svg width="308" height="148" viewBox="0 0 308 148" fill="none" xmlns="http://www.w3.org/2000/svg">
<path fill-rule="evenodd" clip-rule="evenodd" d="M307.755 52.0804L306.732 53.1625L301.478 58.7171L295.523 66.0786L295.391 66.241L295.206 66.3373L288.7 69.7124L288.518 69.807L288.313 69.822L281.623 70.3121L273.645 72.3577L268.74 73.8024L262.746 78.1284L255.087 88.1835L255.065 88.2118L255.042 88.2386L246.387 98.0614L246.323 98.1334L246.247 98.192L234.88 106.965L234.799 107.028L234.707 107.072L223.955 112.309L223.432 113.661L225.393 115.185L233.432 118.296L243.765 116.349L249.901 111.711L254.159 107.65L256.977 102.989L257.769 101.68L258.651 102.931L259.993 104.837L260.301 105.275L260.108 105.774L257.308 113.009L257.231 113.209L257.078 113.36L252.031 118.34L251.989 118.381L251.943 118.417L245.991 123.047L245.804 123.193L245.571 123.239L234.31 125.467L234.109 125.506L233.908 125.464L223.978 123.355L223.9 123.338L223.825 123.309L213.949 119.487L202.885 117.092L194.399 118.72L188.566 122.509L184.941 125.148L184.079 125.775L183.508 124.876L180.595 120.288L180.586 120.274L180.578 120.26L180.686 120.196C180.578 120.26 180.578 120.26 180.578 120.26L180.577 120.259L180.577 120.259L180.575 120.256L180.569 120.245L180.545 120.205L180.494 120.116L180.456 120.052C180.421 119.992 180.379 119.919 180.331 119.835L180.257 119.706C180.219 119.64 180.178 119.568 180.135 119.492C179.866 119.018 179.498 118.359 179.102 117.62C178.321 116.161 177.395 114.317 176.936 112.961C175.056 107.41 175.626 102.836 177.591 99.1947C179.537 95.5877 182.796 92.9995 186.13 91.2642L186.32 91.1649L186.535 91.1528L201.764 90.2933L201.803 79.2739L201.816 75.5083L203.673 78.7843L213.826 96.6969L221.209 101.161L230.418 96.79L246.064 81.9852L258.431 61.5002L261.249 33.9575L252.98 13.0239L245.37 2.52643L244.392 1.17777L246.042 0.948964L249.339 0.491764L249.887 0.415771L250.242 0.83964L261.865 14.6966L261.95 14.797L262.005 14.9156L266.558 24.6501L266.585 24.7073L266.604 24.7674L269.058 32.3959L270.581 32.4119L274.658 26.7544L276.494 19.4083L277.429 12.548L277.75 10.1935L279.209 12.0689L280.367 13.5568L280.565 13.812L280.577 14.1352L280.752 19.056L280.754 19.1055L280.751 19.155L280.343 25.5833L280.334 25.7371L280.278 25.8809L276.895 34.6239L276.855 34.7263L276.794 34.8176L271.927 42.1194L267.657 58.2669L268.804 59.0762L275.434 56.1459L279.911 44.5774L280.95 37.4959L281.541 31.5094L281.598 30.9288L282.132 30.6929L283.386 30.1384L284.592 29.6053L284.78 30.9103L285.627 36.7842L285.637 36.8533L285.637 36.9231L285.667 44.9073L285.667 44.9561L285.663 45.0047L284.276 59.7498L287.055 61.3479L292.945 59.8726L298.642 54.6925L298.693 54.6457L298.751 54.6066L303.934 51.0662L304.368 50.7695L304.859 50.9594L306.366 51.5428L307.755 52.0804ZM182.292 119.23L182.294 119.232L184.625 122.904L187.41 120.876L187.432 120.86L187.454 120.846L193.474 116.936L193.638 116.829L193.83 116.792L202.709 115.089L202.91 115.051L203.109 115.094L214.448 117.549L214.525 117.565L214.598 117.594L224.472 121.415L234.123 123.465L244.951 121.323L250.668 116.875L255.52 112.087L258.05 105.551L257.897 105.334L255.801 108.799L255.732 108.914L255.635 109.006L251.24 113.198L251.199 113.237L251.153 113.272L244.784 118.086L244.596 118.228L244.366 118.271L233.522 120.314L233.242 120.367L232.976 120.264L224.535 116.997L224.398 116.944L224.282 116.854L221.617 114.783L221.029 114.327L221.298 113.633L222.231 111.221L222.373 110.854L222.726 110.683L233.739 105.319L244.95 96.6673L253.517 86.9432L261.245 76.7984L261.335 76.6804L261.455 76.5935L267.708 72.0806L267.847 71.9805L268.011 71.9322L273.097 70.4341L273.114 70.4291L273.131 70.4247L281.213 68.3526L281.299 68.3305L281.388 68.3239L287.961 67.8424L294.099 64.6582L299.948 57.429L299.972 57.399L299.999 57.3709L303.191 53.9952L299.936 56.2189L294.104 61.5215L293.918 61.6906L293.674 61.7516L287.149 63.386L286.758 63.4841L286.408 63.2829L282.722 61.1631L282.164 60.8426L282.224 60.2026L283.667 44.8661L283.637 37.0005L283.264 34.4123L282.939 37.7157L282.936 37.7393L282.933 37.7628L281.874 44.9789L281.857 45.0899L281.817 45.1946L277.15 57.254L277.001 57.6403L276.622 57.8078L269.095 61.1344L268.577 61.3633L268.114 61.0369L265.936 59.5006L265.368 59.0999L265.545 58.4277L270.036 41.4474L270.079 41.2868L270.171 41.1485L275.069 33.7997L278.357 25.3028L278.752 19.0778L278.712 17.9473L278.468 19.7326L278.461 19.7869L278.448 19.84L276.552 27.4256L276.505 27.612L276.393 27.7678L271.901 34.0019L271.598 34.4227L271.079 34.4172L268.317 34.3882L267.596 34.3807L267.375 33.6946L264.719 25.4401L260.249 15.8815L249.066 2.54879L247.967 2.7012L254.673 11.9522L254.747 12.0544L254.794 12.1718L263.199 33.4494L263.288 33.6761L263.263 33.9185L260.398 61.9268L260.375 62.1499L260.259 62.3419L247.706 83.135L247.636 83.2513L247.538 83.3446L231.678 98.3517L231.562 98.4607L231.419 98.5287L221.581 103.199L221.095 103.429L220.634 103.151L212.567 98.2732L212.343 98.1379L212.215 97.9105L203.79 83.0465L203.761 91.2421L203.758 92.1839L202.817 92.237L186.865 93.1374C183.825 94.7531 181.012 97.0655 179.351 100.145C177.673 103.253 177.111 107.246 178.83 112.319C179.231 113.501 180.083 115.214 180.865 116.676C181.251 117.397 181.611 118.041 181.874 118.504C182.005 118.735 182.112 118.921 182.187 119.049C182.224 119.113 182.252 119.162 182.272 119.195L182.292 119.23ZM161.723 145.78C162.32 146.743 162.792 147.47 162.792 147.47L164.465 146.373L184.553 133.193L186.225 132.096C186.225 132.096 185.805 131.466 185.126 130.425C183.225 127.509 179.296 121.37 176.914 116.843C176.789 116.577 176.688 116.365 176.596 116.174C176.301 115.557 176.115 115.168 175.621 113.933C175.542 113.699 175.46 113.457 175.375 113.208L175.374 113.205L175.374 113.205L175.374 113.205L175.374 113.204C175.057 112.275 174.707 111.249 174.426 110.147C174.159 109.101 173.954 107.987 173.898 106.821L172.309 109.883L159.312 134.932C158.164 137.532 158.81 140.119 159.453 141.72C159.826 142.65 160.894 144.443 161.723 145.78ZM163.396 144.683C163.29 144.513 163.182 144.336 163.071 144.154C162.295 142.881 161.556 141.591 161.309 140.975C160.751 139.584 160.323 137.65 161.118 135.793L173.096 112.709C173.23 113.121 173.363 113.508 173.487 113.869L173.487 113.871C173.571 114.115 173.65 114.347 173.723 114.566L173.742 114.622L173.764 114.676C174.283 115.974 174.494 116.414 174.797 117.047C174.887 117.235 174.985 117.44 175.102 117.691L175.122 117.733L175.144 117.774C176.799 120.919 179.162 124.787 181.091 127.841C182.011 129.297 182.838 130.578 183.454 131.522L163.396 144.683ZM1.38189 53.3867L0.35791 52.3047L1.74732 51.7674L3.25593 51.184L3.74657 50.9942L4.1811 51.2908L9.36764 54.8312L9.42501 54.8703L9.47642 54.9171L15.1773 60.0972L21.0715 61.5725L23.8529 59.9742L22.465 45.2288L22.4604 45.1802L22.4606 45.1314L22.4907 37.1472L22.491 37.0774L22.501 37.0083L23.3483 31.1345L23.5365 29.8302L24.7425 30.363L25.9978 30.9175L26.5318 31.1534L26.589 31.7341L27.1796 37.7205L28.2197 44.8021L32.6993 56.3705L39.3341 59.3009L40.4832 58.4912L36.2095 42.3435L31.3395 35.0417L31.2786 34.9504L31.2389 34.848L27.8534 26.1049L27.7977 25.9612L27.788 25.8074L27.38 19.3791L27.3769 19.3296L27.3786 19.2801L27.5544 14.3593L27.5659 14.0362L27.7645 13.7811L28.923 12.2933L30.3825 10.4186L30.7036 12.7726L31.6391 19.6329L33.4762 26.979L37.5557 32.6365L39.0803 32.6205L41.5366 24.9916L41.5559 24.9315L41.5827 24.8743L46.1384 15.1399L46.1939 15.0213L46.2781 14.921L57.9088 1.06401L58.2643 0.640451L58.8123 0.716392L62.1116 1.1736L63.7625 1.40238L62.7843 2.75082L55.1689 13.2484L46.8942 34.182L49.714 61.7248L62.0889 82.2098L77.7455 97.0146L86.9612 101.386L94.3499 96.9214L104.509 79.0086L106.367 75.7339L106.38 79.4985L106.418 90.5179L121.658 91.3775L121.873 91.3896L122.064 91.4888C125.4 93.2241 128.661 95.8123 130.609 99.4193C132.575 103.06 133.145 107.635 131.264 113.185C130.804 114.541 129.877 116.385 129.096 117.844C128.7 118.584 128.332 119.242 128.062 119.716C127.928 119.953 127.817 120.144 127.741 120.277C127.702 120.343 127.672 120.394 127.652 120.429L127.628 120.47L127.622 120.48L127.62 120.483L127.62 120.484L127.62 120.484C127.62 120.484 127.62 120.484 126.758 119.976L127.62 120.484L127.611 120.498L127.602 120.512L124.687 125.1L124.116 125.999L123.254 125.372L119.626 122.733L113.79 118.944L105.297 117.316L94.2264 119.711L84.3433 123.533L84.2686 123.562L84.1902 123.579L74.2539 125.688L74.0532 125.731L73.8519 125.691L62.5829 123.463L62.3501 123.417L62.1628 123.271L56.2076 118.641L56.1611 118.605L56.1192 118.564L51.0691 113.584L50.9162 113.434L50.8386 113.233L48.0368 105.998L47.8435 105.499L48.1518 105.061L49.495 103.155L50.3764 101.905L51.1687 103.214L53.9893 107.875L58.2495 111.935L64.3901 116.574L74.7297 118.521L82.7744 115.41L84.7377 113.885L84.2142 112.533L73.455 107.296L73.3629 107.252L73.2818 107.189L61.9066 98.4161L61.8306 98.3575L61.7671 98.2855L53.1067 88.4627L53.0831 88.4359L53.0615 88.4076L45.3968 78.3525L39.399 74.0265L34.4904 72.5818L26.5072 70.5362L19.8133 70.0461L19.6082 70.0311L19.4257 69.9365L12.9157 66.5614L12.73 66.4651L12.5985 66.3027L6.63877 58.9412L1.38189 53.3867ZM125.903 119.457L125.904 119.455L125.925 119.419C125.944 119.386 125.973 119.337 126.01 119.273C126.084 119.145 126.192 118.959 126.323 118.728C126.586 118.265 126.946 117.621 127.332 116.9C128.115 115.438 128.968 113.726 129.369 112.543C131.089 107.47 130.527 103.477 128.848 100.369C127.185 97.2897 124.371 94.9772 121.329 93.3615L105.365 92.4611L104.425 92.408L104.421 91.4662L104.393 83.2696L95.9614 98.135L95.8325 98.3622L95.6089 98.4974L87.5362 103.375L87.0759 103.653L86.5899 103.423L76.7447 98.7529L76.6013 98.6848L76.486 98.5758L60.6155 83.5687L60.5169 83.4754L60.4466 83.3591L47.8855 62.566L47.7696 62.374L47.7467 62.1509L44.8792 34.1426L44.8544 33.9002L44.944 33.6736L53.3547 12.396L53.401 12.2787L53.4751 12.1765L60.1864 2.92532L59.0861 2.77284L47.8951 16.106L43.4216 25.6646L40.7639 33.9191L40.5432 34.6048L39.8225 34.6123L37.0584 34.6413L36.5396 34.6468L36.2362 34.226L31.7409 27.9919L31.6285 27.8361L31.5819 27.6497L29.685 20.0641L29.6717 20.011L29.6643 19.9567L29.4202 18.1669L29.3797 19.3025L29.7747 25.5275L33.065 34.0244L37.9663 41.3731L38.0585 41.5114L38.101 41.672L42.595 58.6523L42.7729 59.3243L42.2046 59.7248L40.0246 61.2612L39.5619 61.5873L39.0439 61.3585L31.512 58.0319L31.1329 57.8644L30.9833 57.4781L26.3135 45.4187L26.273 45.314L26.2567 45.203L25.1968 37.9869L25.1934 37.9634L25.191 37.9398L24.8649 34.6334L24.491 37.2251L24.4613 45.0907L25.9048 60.4272L25.965 61.067L25.4077 61.3873L21.7192 63.5071L21.3692 63.7081L20.9776 63.6101L14.4479 61.9757L14.204 61.9147L14.0179 61.7456L8.18228 56.443L4.92101 54.2169L8.11856 57.5955L8.14515 57.6236L8.1695 57.6536L14.0221 64.8828L20.164 68.067L26.7418 68.5486L26.8308 68.5551L26.9172 68.5772L35.0039 70.6494L35.0211 70.6538L35.0381 70.6588L40.1278 72.1568L40.2919 72.2051L40.4307 72.3052L46.6876 76.8181L46.808 76.905L46.898 77.023L54.6311 87.1678L63.2045 96.8919L74.4226 105.544L85.4429 110.907L85.7962 111.079L85.938 111.445L86.872 113.857L87.1407 114.551L86.5531 115.007L83.8863 117.078L83.7704 117.168L83.6336 117.221L75.1861 120.488L74.9202 120.591L74.64 120.538L63.7895 118.495L63.5587 118.452L63.3714 118.31L56.9978 113.496L56.952 113.461L56.9105 113.422L52.5123 109.23L52.4158 109.138L52.3467 109.024L50.2493 105.558L50.0957 105.776L52.6268 112.312L57.4821 117.099L63.2035 121.547L74.0384 123.69L83.6957 121.64L93.5769 117.818L93.6498 117.79L93.7263 117.773L105.073 115.319L105.273 115.276L105.473 115.314L114.358 117.017L114.55 117.054L114.715 117.161L120.738 121.071L120.76 121.085L120.782 121.101L123.569 123.129L125.903 119.457ZM146.292 145.957C145.695 146.92 145.223 147.647 145.223 147.647L143.55 146.55L123.446 133.369L121.774 132.272C121.774 132.272 122.194 131.642 122.873 130.602C124.776 127.686 128.707 121.546 131.092 117.019C131.216 116.753 131.318 116.541 131.409 116.351L131.409 116.35C131.705 115.733 131.891 115.345 132.386 114.11C132.464 113.874 132.547 113.631 132.632 113.381L132.632 113.381C132.95 112.452 133.3 111.425 133.582 110.322C133.848 109.277 134.053 108.163 134.11 106.998L135.699 110.059L148.705 135.109C149.854 137.709 149.207 140.295 148.564 141.896C148.191 142.827 147.122 144.619 146.292 145.957ZM144.619 144.86C144.725 144.69 144.834 144.512 144.944 144.331C145.721 143.057 146.46 141.768 146.708 141.152C147.266 139.761 147.695 137.826 146.898 135.97L134.912 112.884C134.777 113.296 134.644 113.685 134.52 114.046C134.463 114.213 134.408 114.373 134.355 114.528C134.331 114.6 134.307 114.672 134.283 114.742L134.265 114.797L134.243 114.852C133.724 116.15 133.513 116.59 133.21 117.222L133.21 117.222L133.209 117.223C133.119 117.411 133.021 117.616 132.903 117.867L132.884 117.909L132.862 117.95C131.206 121.095 128.841 124.963 126.911 128.017C125.991 129.472 125.162 130.754 124.546 131.698L144.619 144.86ZM60.3109 33.24V57H62.5549V46.506H67.6369C68.7369 46.506 69.8259 46.407 70.9039 46.209C72.0039 46.011 72.9829 45.67 73.8409 45.186C74.6989 44.68 75.3919 43.998 75.9199 43.14C76.4699 42.282 76.7449 41.193 76.7449 39.873C76.7449 38.993 76.6239 38.157 76.3819 37.365C76.1619 36.551 75.7549 35.836 75.1609 35.22C74.5889 34.604 73.7969 34.12 72.7849 33.768C71.7949 33.416 70.5299 33.24 68.9899 33.24H60.3109ZM70.5409 44.394C69.7049 44.526 68.7589 44.592 67.7029 44.592H62.5549V35.154H68.3629C70.4969 35.154 72.0479 35.539 73.0159 36.309C74.0059 37.079 74.5009 38.212 74.5009 39.708C74.5009 40.72 74.3359 41.545 74.0059 42.183C73.6979 42.799 73.2469 43.294 72.6529 43.668C72.0809 44.02 71.3769 44.262 70.5409 44.394ZM80.3527 40.269C79.8907 41.787 79.6597 43.415 79.6597 45.153C79.6597 46.869 79.8907 48.486 80.3527 50.004C80.8147 51.5 81.5077 52.82 82.4317 53.964C83.3557 55.086 84.5107 55.977 85.8967 56.637C87.2827 57.297 88.8887 57.627 90.7147 57.627C92.5407 57.627 94.1467 57.297 95.5327 56.637C96.9187 55.977 98.0737 55.086 98.9977 53.964C99.9217 52.82 100.615 51.5 101.077 50.004C101.561 48.486 101.803 46.869 101.803 45.153C101.803 43.415 101.561 41.787 101.077 40.269C100.615 38.729 99.9107 37.398 98.9647 36.276C98.0407 35.132 96.8747 34.241 95.4667 33.603C94.0807 32.943 92.4637 32.613 90.6157 32.613C88.8337 32.613 87.2607 32.943 85.8967 33.603C84.5327 34.263 83.3887 35.165 82.4647 36.309C81.5407 37.431 80.8367 38.751 80.3527 40.269ZM94.7077 54.855C93.6077 55.427 92.2877 55.713 90.7477 55.713C89.1857 55.713 87.8437 55.427 86.7217 54.855C85.6217 54.283 84.7087 53.513 83.9827 52.545C83.2787 51.577 82.7507 50.455 82.3987 49.179C82.0687 47.903 81.9037 46.561 81.9037 45.153C81.9037 43.767 82.0687 42.436 82.3987 41.16C82.7507 39.884 83.2787 38.762 83.9827 37.794C84.7087 36.804 85.6217 36.012 86.7217 35.418C87.8437 34.824 89.1637 34.527 90.6817 34.527C92.0457 34.527 93.2777 34.769 94.3777 35.253C95.4777 35.737 96.4127 36.441 97.1827 37.365C97.9527 38.289 98.5357 39.411 98.9317 40.731C99.3497 42.029 99.5587 43.503 99.5587 45.153C99.5587 46.539 99.3827 47.87 99.0307 49.146C98.7007 50.422 98.1727 51.544 97.4467 52.512C96.7427 53.48 95.8297 54.261 94.7077 54.855ZM106.268 33.24V57H121.25V55.086H108.512V33.24H106.268ZM139.059 33.24L131.898 44.691L124.902 33.24H122.328L130.809 46.803V57H133.053V46.638L141.666 33.24H139.059ZM159.926 33.24H142.634V35.154H150.158V57H152.402V35.154H159.926V33.24ZM174.633 44.031C173.929 44.207 173.159 44.295 172.323 44.295H165.327V35.154H172.455C173.203 35.154 173.918 35.22 174.6 35.352C175.304 35.484 175.92 35.715 176.448 36.045C176.998 36.375 177.427 36.826 177.735 37.398C178.065 37.97 178.23 38.696 178.23 39.576C178.23 40.412 178.076 41.127 177.768 41.721C177.46 42.315 177.042 42.81 176.514 43.206C175.986 43.58 175.359 43.855 174.633 44.031ZM165.327 57V46.209H172.389C172.939 46.209 173.467 46.242 173.973 46.308C174.501 46.374 174.974 46.506 175.392 46.704C175.81 46.902 176.162 47.199 176.448 47.595C176.756 47.969 176.976 48.475 177.108 49.113C177.196 49.575 177.251 50.169 177.273 50.895C177.317 51.621 177.361 52.369 177.405 53.139C177.471 53.909 177.548 54.646 177.636 55.35C177.746 56.054 177.922 56.604 178.164 57H180.639V56.769C180.485 56.659 180.353 56.505 180.243 56.307C180.133 56.087 180.034 55.79 179.946 55.416C179.88 55.042 179.814 54.558 179.748 53.964C179.704 53.37 179.671 52.622 179.649 51.72C179.627 51.104 179.583 50.466 179.517 49.806C179.473 49.146 179.352 48.519 179.154 47.925C178.956 47.331 178.659 46.803 178.263 46.341C177.867 45.879 177.317 45.527 176.613 45.285C177.977 44.669 178.956 43.921 179.55 43.041C180.166 42.161 180.474 40.973 180.474 39.477C180.474 37.277 179.781 35.693 178.395 34.725C177.009 33.735 175.007 33.24 172.389 33.24H163.083V57H165.327ZM184.896 40.269C184.434 41.787 184.203 43.415 184.203 45.153C184.203 46.869 184.434 48.486 184.896 50.004C185.358 51.5 186.051 52.82 186.975 53.964C187.899 55.086 189.054 55.977 190.44 56.637C191.826 57.297 193.432 57.627 195.258 57.627C197.084 57.627 198.69 57.297 200.076 56.637C201.462 55.977 202.617 55.086 203.541 53.964C204.465 52.82 205.158 51.5 205.62 50.004C206.104 48.486 206.346 46.869 206.346 45.153C206.346 43.415 206.104 41.787 205.62 40.269C205.158 38.729 204.454 37.398 203.508 36.276C202.584 35.132 201.418 34.241 200.01 33.603C198.624 32.943 197.007 32.613 195.159 32.613C193.377 32.613 191.804 32.943 190.44 33.603C189.076 34.263 187.932 35.165 187.008 36.309C186.084 37.431 185.38 38.751 184.896 40.269ZM199.251 54.855C198.151 55.427 196.831 55.713 195.291 55.713C193.729 55.713 192.387 55.427 191.265 54.855C190.165 54.283 189.252 53.513 188.526 52.545C187.822 51.577 187.294 50.455 186.942 49.179C186.612 47.903 186.447 46.561 186.447 45.153C186.447 43.767 186.612 42.436 186.942 41.16C187.294 39.884 187.822 38.762 188.526 37.794C189.252 36.804 190.165 36.012 191.265 35.418C192.387 34.824 193.707 34.527 195.225 34.527C196.589 34.527 197.821 34.769 198.921 35.253C200.021 35.737 200.956 36.441 201.726 37.365C202.496 38.289 203.079 39.411 203.475 40.731C203.893 42.029 204.102 43.503 204.102 45.153C204.102 46.539 203.926 47.87 203.574 49.146C203.244 50.422 202.716 51.544 201.99 52.512C201.286 53.48 200.373 54.261 199.251 54.855ZM210.712 33.24V57H212.956V46.506H218.038C219.138 46.506 220.227 46.407 221.305 46.209C222.405 46.011 223.384 45.67 224.242 45.186C225.1 44.68 225.793 43.998 226.321 43.14C226.871 42.282 227.146 41.193 227.146 39.873C227.146 38.993 227.025 38.157 226.783 37.365C226.563 36.551 226.156 35.836 225.562 35.22C224.99 34.604 224.198 34.12 223.186 33.768C222.196 33.416 220.931 33.24 219.391 33.24H210.712ZM220.942 44.394C220.106 44.526 219.16 44.592 218.104 44.592H212.956V35.154H218.764C220.898 35.154 222.449 35.539 223.417 36.309C224.407 37.079 224.902 38.212 224.902 39.708C224.902 40.72 224.737 41.545 224.407 42.183C224.099 42.799 223.648 43.294 223.054 43.668C222.482 44.02 221.778 44.262 220.942 44.394ZM245.439 33.24L238.278 44.691L231.282 33.24H228.708L237.189 46.803V57H239.433V46.638L248.046 33.24H245.439Z" fill="black"/>
</svg>
